<mxfile host="app.diagrams.net" modified="2023-12-23T09:42:03.955Z" agent="Mozilla/5.0 (Windows NT 10.0; Win64; x64) AppleWebKit/537.36 (KHTML, like Gecko) Chrome/120.0.0.0 Safari/537.36 Edg/120.0.0.0" etag="JBDWtBBkfiZ-j5_lPVJT" version="22.1.11" type="github">
  <diagram name="Page-1" id="qXT7NRnKeL-LlEp5uqXf">
    <mxGraphModel dx="1042" dy="582" grid="1" gridSize="10" guides="1" tooltips="1" connect="1" arrows="1" fold="1" page="1" pageScale="1" pageWidth="850" pageHeight="1100" math="0" shadow="0">
      <root>
        <mxCell id="0" />
        <mxCell id="1" parent="0" />
        <mxCell id="o7TXHGnSgMYz_lY65jY6-1" value="customer" style="shape=umlActor;verticalLabelPosition=bottom;verticalAlign=top;html=1;outlineConnect=0;" vertex="1" parent="1">
          <mxGeometry x="30" y="270" width="30" height="60" as="geometry" />
        </mxCell>
        <mxCell id="o7TXHGnSgMYz_lY65jY6-2" value="order" style="ellipse;whiteSpace=wrap;html=1;" vertex="1" parent="1">
          <mxGeometry x="95" y="200" width="110" height="60" as="geometry" />
        </mxCell>
        <mxCell id="o7TXHGnSgMYz_lY65jY6-3" value="view order status" style="ellipse;whiteSpace=wrap;html=1;" vertex="1" parent="1">
          <mxGeometry x="85" y="410" width="120" height="80" as="geometry" />
        </mxCell>
        <mxCell id="o7TXHGnSgMYz_lY65jY6-4" value="Office Staff" style="shape=umlActor;verticalLabelPosition=bottom;verticalAlign=top;html=1;outlineConnect=0;" vertex="1" parent="1">
          <mxGeometry x="790" y="250" width="30" height="60" as="geometry" />
        </mxCell>
        <mxCell id="o7TXHGnSgMYz_lY65jY6-5" value="provides customer ID" style="ellipse;whiteSpace=wrap;html=1;" vertex="1" parent="1">
          <mxGeometry x="60" y="10" width="120" height="80" as="geometry" />
        </mxCell>
        <mxCell id="o7TXHGnSgMYz_lY65jY6-6" value="selects flavors" style="ellipse;whiteSpace=wrap;html=1;" vertex="1" parent="1">
          <mxGeometry x="305" y="30" width="120" height="70" as="geometry" />
        </mxCell>
        <mxCell id="o7TXHGnSgMYz_lY65jY6-7" value="tub sizes" style="ellipse;whiteSpace=wrap;html=1;" vertex="1" parent="1">
          <mxGeometry x="295" y="110" width="120" height="60" as="geometry" />
        </mxCell>
        <mxCell id="o7TXHGnSgMYz_lY65jY6-8" value="quantities" style="ellipse;whiteSpace=wrap;html=1;" vertex="1" parent="1">
          <mxGeometry x="210" y="245" width="120" height="70" as="geometry" />
        </mxCell>
        <mxCell id="o7TXHGnSgMYz_lY65jY6-9" value="confirms orders" style="ellipse;whiteSpace=wrap;html=1;" vertex="1" parent="1">
          <mxGeometry x="185" y="340" width="120" height="60" as="geometry" />
        </mxCell>
        <mxCell id="o7TXHGnSgMYz_lY65jY6-11" value="Customer Management" style="ellipse;whiteSpace=wrap;html=1;" vertex="1" parent="1">
          <mxGeometry x="690" y="140" width="120" height="70" as="geometry" />
        </mxCell>
        <mxCell id="o7TXHGnSgMYz_lY65jY6-12" value="add new customer" style="ellipse;whiteSpace=wrap;html=1;" vertex="1" parent="1">
          <mxGeometry x="530" y="90" width="120" height="70" as="geometry" />
        </mxCell>
        <mxCell id="o7TXHGnSgMYz_lY65jY6-13" value="view customer details" style="ellipse;whiteSpace=wrap;html=1;" vertex="1" parent="1">
          <mxGeometry x="510" y="10" width="130" height="70" as="geometry" />
        </mxCell>
        <mxCell id="o7TXHGnSgMYz_lY65jY6-14" value="Order Management" style="ellipse;whiteSpace=wrap;html=1;" vertex="1" parent="1">
          <mxGeometry x="680" y="400" width="120" height="70" as="geometry" />
        </mxCell>
        <mxCell id="o7TXHGnSgMYz_lY65jY6-15" value="Record orders" style="ellipse;whiteSpace=wrap;html=1;" vertex="1" parent="1">
          <mxGeometry x="600" y="250" width="120" height="70" as="geometry" />
        </mxCell>
        <mxCell id="o7TXHGnSgMYz_lY65jY6-16" value="retain orders for five years" style="ellipse;whiteSpace=wrap;html=1;" vertex="1" parent="1">
          <mxGeometry x="530" y="335" width="120" height="70" as="geometry" />
        </mxCell>
        <mxCell id="o7TXHGnSgMYz_lY65jY6-17" value="evise order details" style="ellipse;whiteSpace=wrap;html=1;" vertex="1" parent="1">
          <mxGeometry x="500" y="440" width="120" height="70" as="geometry" />
        </mxCell>
        <mxCell id="o7TXHGnSgMYz_lY65jY6-18" value="generate invoice" style="ellipse;whiteSpace=wrap;html=1;" vertex="1" parent="1">
          <mxGeometry x="560" y="515" width="120" height="70" as="geometry" />
        </mxCell>
        <mxCell id="o7TXHGnSgMYz_lY65jY6-19" value="&amp;nbsp;print or email invoices" style="ellipse;whiteSpace=wrap;html=1;" vertex="1" parent="1">
          <mxGeometry x="630" y="720" width="120" height="65" as="geometry" />
        </mxCell>
        <mxCell id="o7TXHGnSgMYz_lY65jY6-20" value="LOGIN" style="ellipse;whiteSpace=wrap;html=1;" vertex="1" parent="1">
          <mxGeometry x="380" y="310" width="120" height="80" as="geometry" />
        </mxCell>
        <mxCell id="o7TXHGnSgMYz_lY65jY6-21" value="Production Manager" style="shape=umlActor;verticalLabelPosition=bottom;verticalAlign=top;html=1;outlineConnect=0;" vertex="1" parent="1">
          <mxGeometry x="230" y="760" width="30" height="60" as="geometry" />
        </mxCell>
        <mxCell id="o7TXHGnSgMYz_lY65jY6-22" value="Production Management" style="ellipse;whiteSpace=wrap;html=1;" vertex="1" parent="1">
          <mxGeometry x="230" y="585" width="120" height="80" as="geometry" />
        </mxCell>
        <mxCell id="o7TXHGnSgMYz_lY65jY6-23" value="View customer orders" style="ellipse;whiteSpace=wrap;html=1;" vertex="1" parent="1">
          <mxGeometry x="600" y="610" width="120" height="70" as="geometry" />
        </mxCell>
        <mxCell id="o7TXHGnSgMYz_lY65jY6-24" value="" style="endArrow=none;html=1;rounded=0;exitX=0.75;exitY=0.1;exitDx=0;exitDy=0;exitPerimeter=0;entryX=0.5;entryY=1;entryDx=0;entryDy=0;" edge="1" parent="1" source="o7TXHGnSgMYz_lY65jY6-21" target="o7TXHGnSgMYz_lY65jY6-22">
          <mxGeometry width="50" height="50" relative="1" as="geometry">
            <mxPoint x="480" y="540" as="sourcePoint" />
            <mxPoint x="530" y="490" as="targetPoint" />
          </mxGeometry>
        </mxCell>
        <mxCell id="o7TXHGnSgMYz_lY65jY6-25" value="" style="endArrow=none;html=1;rounded=0;exitX=0.75;exitY=0.1;exitDx=0;exitDy=0;exitPerimeter=0;" edge="1" parent="1" source="o7TXHGnSgMYz_lY65jY6-1" target="o7TXHGnSgMYz_lY65jY6-2">
          <mxGeometry width="50" height="50" relative="1" as="geometry">
            <mxPoint x="480" y="360" as="sourcePoint" />
            <mxPoint x="530" y="310" as="targetPoint" />
          </mxGeometry>
        </mxCell>
        <mxCell id="o7TXHGnSgMYz_lY65jY6-26" value="" style="endArrow=none;html=1;rounded=0;" edge="1" parent="1" source="o7TXHGnSgMYz_lY65jY6-1" target="o7TXHGnSgMYz_lY65jY6-3">
          <mxGeometry width="50" height="50" relative="1" as="geometry">
            <mxPoint x="480" y="360" as="sourcePoint" />
            <mxPoint x="530" y="310" as="targetPoint" />
          </mxGeometry>
        </mxCell>
        <mxCell id="o7TXHGnSgMYz_lY65jY6-27" value="&lt;font style=&quot;font-size: 9px;&quot;&gt;&amp;lt;&amp;lt;include&amp;gt;&amp;gt;&lt;/font&gt;" style="endArrow=open;endSize=12;dashed=1;html=1;rounded=0;exitX=0.5;exitY=1;exitDx=0;exitDy=0;" edge="1" parent="1" source="o7TXHGnSgMYz_lY65jY6-5" target="o7TXHGnSgMYz_lY65jY6-2">
          <mxGeometry x="0.0783" y="-3" width="160" relative="1" as="geometry">
            <mxPoint x="420" y="240" as="sourcePoint" />
            <mxPoint x="580" y="240" as="targetPoint" />
            <mxPoint as="offset" />
          </mxGeometry>
        </mxCell>
        <mxCell id="o7TXHGnSgMYz_lY65jY6-28" value="&lt;font style=&quot;font-size: 9px;&quot;&gt;&amp;lt;&amp;lt;include&amp;gt;&amp;gt;&lt;/font&gt;" style="endArrow=open;endSize=12;dashed=1;html=1;rounded=0;entryX=0.66;entryY=-0.003;entryDx=0;entryDy=0;entryPerimeter=0;" edge="1" parent="1" source="o7TXHGnSgMYz_lY65jY6-6" target="o7TXHGnSgMYz_lY65jY6-2">
          <mxGeometry x="0.0691" y="-3" width="160" relative="1" as="geometry">
            <mxPoint x="196.39" y="124.9" as="sourcePoint" />
            <mxPoint x="220.39" y="234.9" as="targetPoint" />
            <mxPoint as="offset" />
          </mxGeometry>
        </mxCell>
        <mxCell id="o7TXHGnSgMYz_lY65jY6-29" value="&lt;font style=&quot;font-size: 9px;&quot;&gt;&amp;lt;&amp;lt;include&amp;gt;&amp;gt;&lt;/font&gt;" style="endArrow=open;endSize=12;dashed=1;html=1;rounded=0;entryX=0.936;entryY=0.237;entryDx=0;entryDy=0;entryPerimeter=0;" edge="1" parent="1" source="o7TXHGnSgMYz_lY65jY6-7" target="o7TXHGnSgMYz_lY65jY6-2">
          <mxGeometry x="0.0783" y="-3" width="160" relative="1" as="geometry">
            <mxPoint x="230.4" y="193.36" as="sourcePoint" />
            <mxPoint x="180.4" y="266.36" as="targetPoint" />
            <mxPoint as="offset" />
          </mxGeometry>
        </mxCell>
        <mxCell id="o7TXHGnSgMYz_lY65jY6-30" value="&lt;font style=&quot;font-size: 9px;&quot;&gt;&amp;lt;&amp;lt;include&amp;gt;&amp;gt;&lt;/font&gt;" style="endArrow=open;endSize=12;dashed=1;html=1;rounded=0;entryX=1;entryY=1;entryDx=0;entryDy=0;exitX=0;exitY=0.5;exitDx=0;exitDy=0;" edge="1" parent="1" source="o7TXHGnSgMYz_lY65jY6-8" target="o7TXHGnSgMYz_lY65jY6-2">
          <mxGeometry x="0.0691" y="-3" width="160" relative="1" as="geometry">
            <mxPoint x="218" y="249.55" as="sourcePoint" />
            <mxPoint x="168" y="322.55" as="targetPoint" />
            <mxPoint as="offset" />
          </mxGeometry>
        </mxCell>
        <mxCell id="o7TXHGnSgMYz_lY65jY6-31" value="&lt;font style=&quot;font-size: 9px;&quot;&gt;&amp;lt;&amp;lt;include&amp;gt;&amp;gt;&lt;/font&gt;" style="endArrow=open;endSize=12;dashed=1;html=1;rounded=0;exitX=0;exitY=0;exitDx=0;exitDy=0;" edge="1" parent="1" source="o7TXHGnSgMYz_lY65jY6-9">
          <mxGeometry x="0.0691" y="-3" width="160" relative="1" as="geometry">
            <mxPoint x="188.5999999999999" y="358.56999999999994" as="sourcePoint" />
            <mxPoint x="158.7917279233775" y="260.0042414261135" as="targetPoint" />
            <mxPoint as="offset" />
          </mxGeometry>
        </mxCell>
        <mxCell id="o7TXHGnSgMYz_lY65jY6-33" value="" style="endArrow=none;html=1;rounded=0;" edge="1" parent="1" source="o7TXHGnSgMYz_lY65jY6-11" target="o7TXHGnSgMYz_lY65jY6-4">
          <mxGeometry width="50" height="50" relative="1" as="geometry">
            <mxPoint x="750" y="230" as="sourcePoint" />
            <mxPoint x="530" y="220" as="targetPoint" />
          </mxGeometry>
        </mxCell>
        <mxCell id="o7TXHGnSgMYz_lY65jY6-34" value="" style="endArrow=none;html=1;rounded=0;exitX=0.437;exitY=0.009;exitDx=0;exitDy=0;exitPerimeter=0;" edge="1" parent="1" source="o7TXHGnSgMYz_lY65jY6-14" target="o7TXHGnSgMYz_lY65jY6-4">
          <mxGeometry width="50" height="50" relative="1" as="geometry">
            <mxPoint x="480" y="270" as="sourcePoint" />
            <mxPoint x="530" y="220" as="targetPoint" />
          </mxGeometry>
        </mxCell>
        <mxCell id="o7TXHGnSgMYz_lY65jY6-35" value="" style="endArrow=block;dashed=1;endFill=0;endSize=12;html=1;rounded=0;entryX=0.317;entryY=0.043;entryDx=0;entryDy=0;entryPerimeter=0;exitX=0.74;exitY=0.98;exitDx=0;exitDy=0;exitPerimeter=0;" edge="1" parent="1" source="o7TXHGnSgMYz_lY65jY6-15" target="o7TXHGnSgMYz_lY65jY6-14">
          <mxGeometry width="160" relative="1" as="geometry">
            <mxPoint x="420" y="430" as="sourcePoint" />
            <mxPoint x="580" y="430" as="targetPoint" />
          </mxGeometry>
        </mxCell>
        <mxCell id="o7TXHGnSgMYz_lY65jY6-36" value="&lt;font style=&quot;font-size: 8px;&quot;&gt;&amp;lt;&amp;lt;&lt;font style=&quot;&quot;&gt;extend&lt;/font&gt;&amp;gt;&amp;gt;&lt;/font&gt;" style="edgeLabel;html=1;align=center;verticalAlign=middle;resizable=0;points=[];" vertex="1" connectable="0" parent="o7TXHGnSgMYz_lY65jY6-35">
          <mxGeometry x="-0.1858" y="3" relative="1" as="geometry">
            <mxPoint as="offset" />
          </mxGeometry>
        </mxCell>
        <mxCell id="o7TXHGnSgMYz_lY65jY6-40" value="" style="endArrow=block;dashed=1;endFill=0;endSize=12;html=1;rounded=0;entryX=0;entryY=0.5;entryDx=0;entryDy=0;exitX=0.937;exitY=0.809;exitDx=0;exitDy=0;exitPerimeter=0;" edge="1" parent="1" source="o7TXHGnSgMYz_lY65jY6-16" target="o7TXHGnSgMYz_lY65jY6-14">
          <mxGeometry width="160" relative="1" as="geometry">
            <mxPoint x="660.96" y="480.4" as="sourcePoint" />
            <mxPoint x="699.96" y="534.4" as="targetPoint" />
          </mxGeometry>
        </mxCell>
        <mxCell id="o7TXHGnSgMYz_lY65jY6-41" value="&lt;font style=&quot;font-size: 8px;&quot;&gt;&amp;lt;&amp;lt;&lt;font style=&quot;&quot;&gt;extend&lt;/font&gt;&amp;gt;&amp;gt;&lt;/font&gt;" style="edgeLabel;html=1;align=center;verticalAlign=middle;resizable=0;points=[];" vertex="1" connectable="0" parent="o7TXHGnSgMYz_lY65jY6-40">
          <mxGeometry x="-0.1858" y="3" relative="1" as="geometry">
            <mxPoint as="offset" />
          </mxGeometry>
        </mxCell>
        <mxCell id="o7TXHGnSgMYz_lY65jY6-42" value="" style="endArrow=block;dashed=1;endFill=0;endSize=12;html=1;rounded=0;exitX=1.003;exitY=0.66;exitDx=0;exitDy=0;exitPerimeter=0;" edge="1" parent="1" source="o7TXHGnSgMYz_lY65jY6-17" target="o7TXHGnSgMYz_lY65jY6-14">
          <mxGeometry width="160" relative="1" as="geometry">
            <mxPoint x="660.96" y="490.4" as="sourcePoint" />
            <mxPoint x="699.96" y="544.4" as="targetPoint" />
          </mxGeometry>
        </mxCell>
        <mxCell id="o7TXHGnSgMYz_lY65jY6-43" value="&lt;font style=&quot;font-size: 8px;&quot;&gt;&amp;lt;&amp;lt;&lt;font style=&quot;&quot;&gt;extend&lt;/font&gt;&amp;gt;&amp;gt;&lt;/font&gt;" style="edgeLabel;html=1;align=center;verticalAlign=middle;resizable=0;points=[];" vertex="1" connectable="0" parent="o7TXHGnSgMYz_lY65jY6-42">
          <mxGeometry x="-0.1858" y="3" relative="1" as="geometry">
            <mxPoint as="offset" />
          </mxGeometry>
        </mxCell>
        <mxCell id="o7TXHGnSgMYz_lY65jY6-44" value="" style="endArrow=block;dashed=1;endFill=0;endSize=12;html=1;rounded=0;exitX=0.973;exitY=0.289;exitDx=0;exitDy=0;exitPerimeter=0;entryX=0.337;entryY=0.991;entryDx=0;entryDy=0;entryPerimeter=0;" edge="1" parent="1" source="o7TXHGnSgMYz_lY65jY6-18" target="o7TXHGnSgMYz_lY65jY6-14">
          <mxGeometry width="160" relative="1" as="geometry">
            <mxPoint x="689.64" y="530.28" as="sourcePoint" />
            <mxPoint x="761.64" y="500.28" as="targetPoint" />
          </mxGeometry>
        </mxCell>
        <mxCell id="o7TXHGnSgMYz_lY65jY6-45" value="&lt;font style=&quot;font-size: 8px;&quot;&gt;&amp;lt;&amp;lt;&lt;font style=&quot;&quot;&gt;extend&lt;/font&gt;&amp;gt;&amp;gt;&lt;/font&gt;" style="edgeLabel;html=1;align=center;verticalAlign=middle;resizable=0;points=[];" vertex="1" connectable="0" parent="o7TXHGnSgMYz_lY65jY6-44">
          <mxGeometry x="-0.1858" y="3" relative="1" as="geometry">
            <mxPoint as="offset" />
          </mxGeometry>
        </mxCell>
        <mxCell id="o7TXHGnSgMYz_lY65jY6-46" value="" style="endArrow=block;dashed=1;endFill=0;endSize=12;html=1;rounded=0;exitX=1;exitY=0;exitDx=0;exitDy=0;entryX=0.443;entryY=0.969;entryDx=0;entryDy=0;entryPerimeter=0;" edge="1" parent="1" source="o7TXHGnSgMYz_lY65jY6-23" target="o7TXHGnSgMYz_lY65jY6-14">
          <mxGeometry width="160" relative="1" as="geometry">
            <mxPoint x="680.24" y="575.2" as="sourcePoint" />
            <mxPoint x="733.24" y="514.2" as="targetPoint" />
          </mxGeometry>
        </mxCell>
        <mxCell id="o7TXHGnSgMYz_lY65jY6-47" value="&lt;font style=&quot;font-size: 8px;&quot;&gt;&amp;lt;&amp;lt;&lt;font style=&quot;&quot;&gt;extend&lt;/font&gt;&amp;gt;&amp;gt;&lt;/font&gt;" style="edgeLabel;html=1;align=center;verticalAlign=middle;resizable=0;points=[];" vertex="1" connectable="0" parent="o7TXHGnSgMYz_lY65jY6-46">
          <mxGeometry x="-0.1858" y="3" relative="1" as="geometry">
            <mxPoint as="offset" />
          </mxGeometry>
        </mxCell>
        <mxCell id="o7TXHGnSgMYz_lY65jY6-48" value="" style="endArrow=block;dashed=1;endFill=0;endSize=12;html=1;rounded=0;exitX=1;exitY=0;exitDx=0;exitDy=0;entryX=0.623;entryY=1.003;entryDx=0;entryDy=0;entryPerimeter=0;" edge="1" parent="1" source="o7TXHGnSgMYz_lY65jY6-19" target="o7TXHGnSgMYz_lY65jY6-14">
          <mxGeometry width="160" relative="1" as="geometry">
            <mxPoint x="748.84" y="616.17" as="sourcePoint" />
            <mxPoint x="764" y="469" as="targetPoint" />
          </mxGeometry>
        </mxCell>
        <mxCell id="o7TXHGnSgMYz_lY65jY6-49" value="&lt;font style=&quot;font-size: 8px;&quot;&gt;&amp;lt;&amp;lt;&lt;font style=&quot;&quot;&gt;extend&lt;/font&gt;&amp;gt;&amp;gt;&lt;/font&gt;" style="edgeLabel;html=1;align=center;verticalAlign=middle;resizable=0;points=[];" vertex="1" connectable="0" parent="o7TXHGnSgMYz_lY65jY6-48">
          <mxGeometry x="-0.1858" y="3" relative="1" as="geometry">
            <mxPoint as="offset" />
          </mxGeometry>
        </mxCell>
        <mxCell id="o7TXHGnSgMYz_lY65jY6-50" value="" style="endArrow=block;dashed=1;endFill=0;endSize=12;html=1;rounded=0;entryX=-0.02;entryY=0.386;entryDx=0;entryDy=0;entryPerimeter=0;" edge="1" parent="1" source="o7TXHGnSgMYz_lY65jY6-12" target="o7TXHGnSgMYz_lY65jY6-11">
          <mxGeometry width="160" relative="1" as="geometry">
            <mxPoint x="610.96" y="175.99" as="sourcePoint" />
            <mxPoint x="649.96" y="229.99" as="targetPoint" />
          </mxGeometry>
        </mxCell>
        <mxCell id="o7TXHGnSgMYz_lY65jY6-51" value="&lt;font style=&quot;font-size: 8px;&quot;&gt;&amp;lt;&amp;lt;&lt;font style=&quot;&quot;&gt;extend&lt;/font&gt;&amp;gt;&amp;gt;&lt;/font&gt;" style="edgeLabel;html=1;align=center;verticalAlign=middle;resizable=0;points=[];" vertex="1" connectable="0" parent="o7TXHGnSgMYz_lY65jY6-50">
          <mxGeometry x="-0.1858" y="3" relative="1" as="geometry">
            <mxPoint as="offset" />
          </mxGeometry>
        </mxCell>
        <mxCell id="o7TXHGnSgMYz_lY65jY6-52" value="" style="endArrow=block;dashed=1;endFill=0;endSize=12;html=1;rounded=0;entryX=0.5;entryY=0;entryDx=0;entryDy=0;exitX=1;exitY=1;exitDx=0;exitDy=0;" edge="1" parent="1" source="o7TXHGnSgMYz_lY65jY6-13" target="o7TXHGnSgMYz_lY65jY6-11">
          <mxGeometry width="160" relative="1" as="geometry">
            <mxPoint x="731.4" y="138.98" as="sourcePoint" />
            <mxPoint x="800.4" y="209.98" as="targetPoint" />
          </mxGeometry>
        </mxCell>
        <mxCell id="o7TXHGnSgMYz_lY65jY6-53" value="&lt;font style=&quot;font-size: 8px;&quot;&gt;&amp;lt;&amp;lt;&lt;font style=&quot;&quot;&gt;extend&lt;/font&gt;&amp;gt;&amp;gt;&lt;/font&gt;" style="edgeLabel;html=1;align=center;verticalAlign=middle;resizable=0;points=[];" vertex="1" connectable="0" parent="o7TXHGnSgMYz_lY65jY6-52">
          <mxGeometry x="-0.1858" y="3" relative="1" as="geometry">
            <mxPoint as="offset" />
          </mxGeometry>
        </mxCell>
        <mxCell id="o7TXHGnSgMYz_lY65jY6-54" value="&lt;font style=&quot;font-size: 9px;&quot;&gt;&amp;lt;&amp;lt;include&amp;gt;&amp;gt;&lt;/font&gt;" style="endArrow=open;endSize=12;dashed=1;html=1;rounded=0;exitX=1;exitY=0.5;exitDx=0;exitDy=0;" edge="1" parent="1" source="o7TXHGnSgMYz_lY65jY6-5" target="o7TXHGnSgMYz_lY65jY6-20">
          <mxGeometry x="0.0691" y="-3" width="160" relative="1" as="geometry">
            <mxPoint x="465.43" y="127.18" as="sourcePoint" />
            <mxPoint x="415.43" y="200.18" as="targetPoint" />
            <mxPoint as="offset" />
          </mxGeometry>
        </mxCell>
        <mxCell id="o7TXHGnSgMYz_lY65jY6-55" value="&lt;font style=&quot;font-size: 9px;&quot;&gt;&amp;lt;&amp;lt;include&amp;gt;&amp;gt;&lt;/font&gt;" style="endArrow=open;endSize=12;dashed=1;html=1;rounded=0;exitX=0.915;exitY=0.78;exitDx=0;exitDy=0;exitPerimeter=0;" edge="1" parent="1" source="o7TXHGnSgMYz_lY65jY6-6" target="o7TXHGnSgMYz_lY65jY6-20">
          <mxGeometry x="0.0691" y="-3" width="160" relative="1" as="geometry">
            <mxPoint x="470.02" y="124.63" as="sourcePoint" />
            <mxPoint x="700.02" y="389.63" as="targetPoint" />
            <mxPoint as="offset" />
          </mxGeometry>
        </mxCell>
        <mxCell id="o7TXHGnSgMYz_lY65jY6-56" value="&lt;font style=&quot;font-size: 9px;&quot;&gt;&amp;lt;&amp;lt;include&amp;gt;&amp;gt;&lt;/font&gt;" style="endArrow=open;endSize=12;dashed=1;html=1;rounded=0;exitX=0.638;exitY=0.963;exitDx=0;exitDy=0;exitPerimeter=0;" edge="1" parent="1" source="o7TXHGnSgMYz_lY65jY6-7" target="o7TXHGnSgMYz_lY65jY6-20">
          <mxGeometry x="0.0691" y="-3" width="160" relative="1" as="geometry">
            <mxPoint x="380.2" y="142.66" as="sourcePoint" />
            <mxPoint x="401.2" y="367.65999999999997" as="targetPoint" />
            <mxPoint as="offset" />
          </mxGeometry>
        </mxCell>
        <mxCell id="o7TXHGnSgMYz_lY65jY6-57" value="&lt;font style=&quot;font-size: 9px;&quot;&gt;&amp;lt;&amp;lt;include&amp;gt;&amp;gt;&lt;/font&gt;" style="endArrow=open;endSize=12;dashed=1;html=1;rounded=0;exitX=1;exitY=1;exitDx=0;exitDy=0;entryX=0;entryY=0.5;entryDx=0;entryDy=0;" edge="1" parent="1" source="o7TXHGnSgMYz_lY65jY6-8" target="o7TXHGnSgMYz_lY65jY6-20">
          <mxGeometry x="0.0691" y="-3" width="160" relative="1" as="geometry">
            <mxPoint x="300.44" y="340.22" as="sourcePoint" />
            <mxPoint x="353.44" y="483.22" as="targetPoint" />
            <mxPoint as="offset" />
          </mxGeometry>
        </mxCell>
        <mxCell id="o7TXHGnSgMYz_lY65jY6-58" value="&lt;font style=&quot;font-size: 9px;&quot;&gt;&amp;lt;&amp;lt;include&amp;gt;&amp;gt;&lt;/font&gt;" style="endArrow=open;endSize=12;dashed=1;html=1;rounded=0;exitX=1;exitY=0.5;exitDx=0;exitDy=0;" edge="1" parent="1" source="o7TXHGnSgMYz_lY65jY6-9" target="o7TXHGnSgMYz_lY65jY6-20">
          <mxGeometry x="0.0691" y="-3" width="160" relative="1" as="geometry">
            <mxPoint x="320.79" y="410.25" as="sourcePoint" />
            <mxPoint x="388.79" y="455.25" as="targetPoint" />
            <mxPoint as="offset" />
          </mxGeometry>
        </mxCell>
        <mxCell id="o7TXHGnSgMYz_lY65jY6-59" value="&lt;font style=&quot;font-size: 9px;&quot;&gt;&amp;lt;&amp;lt;include&amp;gt;&amp;gt;&lt;/font&gt;" style="endArrow=open;endSize=12;dashed=1;html=1;rounded=0;exitX=1;exitY=0.5;exitDx=0;exitDy=0;entryX=0.09;entryY=0.813;entryDx=0;entryDy=0;entryPerimeter=0;" edge="1" parent="1" source="o7TXHGnSgMYz_lY65jY6-3" target="o7TXHGnSgMYz_lY65jY6-20">
          <mxGeometry x="0.0691" y="-3" width="160" relative="1" as="geometry">
            <mxPoint x="303.57" y="421.32" as="sourcePoint" />
            <mxPoint x="379.57" y="410.32" as="targetPoint" />
            <mxPoint as="offset" />
          </mxGeometry>
        </mxCell>
        <mxCell id="o7TXHGnSgMYz_lY65jY6-60" value="&lt;font style=&quot;font-size: 9px;&quot;&gt;&amp;lt;&amp;lt;include&amp;gt;&amp;gt;&lt;/font&gt;" style="endArrow=open;endSize=12;dashed=1;html=1;rounded=0;exitX=0.915;exitY=0.78;exitDx=0;exitDy=0;exitPerimeter=0;" edge="1" parent="1">
          <mxGeometry x="0.0691" y="-3" width="160" relative="1" as="geometry">
            <mxPoint x="415.2" y="84.92" as="sourcePoint" />
            <mxPoint x="436.2" y="309.92" as="targetPoint" />
            <mxPoint as="offset" />
          </mxGeometry>
        </mxCell>
        <mxCell id="o7TXHGnSgMYz_lY65jY6-61" value="&lt;font style=&quot;font-size: 9px;&quot;&gt;&amp;lt;&amp;lt;include&amp;gt;&amp;gt;&lt;/font&gt;" style="endArrow=open;endSize=12;dashed=1;html=1;rounded=0;exitX=0;exitY=0.5;exitDx=0;exitDy=0;entryX=0.623;entryY=0.022;entryDx=0;entryDy=0;entryPerimeter=0;" edge="1" parent="1" source="o7TXHGnSgMYz_lY65jY6-13" target="o7TXHGnSgMYz_lY65jY6-20">
          <mxGeometry x="0.0691" y="-3" width="160" relative="1" as="geometry">
            <mxPoint x="480" y="90" as="sourcePoint" />
            <mxPoint x="501" y="315" as="targetPoint" />
            <mxPoint as="offset" />
          </mxGeometry>
        </mxCell>
        <mxCell id="o7TXHGnSgMYz_lY65jY6-62" value="&lt;font style=&quot;font-size: 9px;&quot;&gt;&amp;lt;&amp;lt;include&amp;gt;&amp;gt;&lt;/font&gt;" style="endArrow=open;endSize=12;dashed=1;html=1;rounded=0;entryX=0.75;entryY=0.013;entryDx=0;entryDy=0;entryPerimeter=0;" edge="1" parent="1" source="o7TXHGnSgMYz_lY65jY6-12" target="o7TXHGnSgMYz_lY65jY6-20">
          <mxGeometry x="0.0691" y="-3" width="160" relative="1" as="geometry">
            <mxPoint x="550" y="160" as="sourcePoint" />
            <mxPoint x="495" y="427" as="targetPoint" />
            <mxPoint as="offset" />
          </mxGeometry>
        </mxCell>
        <mxCell id="o7TXHGnSgMYz_lY65jY6-63" value="&lt;font style=&quot;font-size: 9px;&quot;&gt;&amp;lt;&amp;lt;include&amp;gt;&amp;gt;&lt;/font&gt;" style="endArrow=open;endSize=12;dashed=1;html=1;rounded=0;entryX=1;entryY=0;entryDx=0;entryDy=0;exitX=0.027;exitY=0.386;exitDx=0;exitDy=0;exitPerimeter=0;" edge="1" parent="1" source="o7TXHGnSgMYz_lY65jY6-15" target="o7TXHGnSgMYz_lY65jY6-20">
          <mxGeometry x="0.0691" y="-3" width="160" relative="1" as="geometry">
            <mxPoint x="609" y="200.24" as="sourcePoint" />
            <mxPoint x="510" y="353.24" as="targetPoint" />
            <mxPoint as="offset" />
          </mxGeometry>
        </mxCell>
        <mxCell id="o7TXHGnSgMYz_lY65jY6-65" value="&lt;font style=&quot;font-size: 9px;&quot;&gt;&amp;lt;&amp;lt;include&amp;gt;&amp;gt;&lt;/font&gt;" style="endArrow=open;endSize=12;dashed=1;html=1;rounded=0;entryX=0.67;entryY=0.982;entryDx=0;entryDy=0;exitX=0.073;exitY=0.754;exitDx=0;exitDy=0;exitPerimeter=0;entryPerimeter=0;" edge="1" parent="1" source="o7TXHGnSgMYz_lY65jY6-16" target="o7TXHGnSgMYz_lY65jY6-20">
          <mxGeometry x="0.0691" y="-3" width="160" relative="1" as="geometry">
            <mxPoint x="579.76" y="365.28" as="sourcePoint" />
            <mxPoint x="458.76" y="410.28" as="targetPoint" />
            <mxPoint as="offset" />
          </mxGeometry>
        </mxCell>
        <mxCell id="o7TXHGnSgMYz_lY65jY6-66" value="&lt;font style=&quot;font-size: 9px;&quot;&gt;&amp;lt;&amp;lt;include&amp;gt;&amp;gt;&lt;/font&gt;" style="endArrow=open;endSize=12;dashed=1;html=1;rounded=0;entryX=0.63;entryY=1.012;entryDx=0;entryDy=0;exitX=0;exitY=0.286;exitDx=0;exitDy=0;exitPerimeter=0;entryPerimeter=0;" edge="1" parent="1" source="o7TXHGnSgMYz_lY65jY6-17" target="o7TXHGnSgMYz_lY65jY6-20">
          <mxGeometry x="0.0691" y="-3" width="160" relative="1" as="geometry">
            <mxPoint x="425.6" y="440.22" as="sourcePoint" />
            <mxPoint x="346.6" y="441.22" as="targetPoint" />
            <mxPoint as="offset" />
          </mxGeometry>
        </mxCell>
        <mxCell id="o7TXHGnSgMYz_lY65jY6-67" value="&lt;font style=&quot;font-size: 9px;&quot;&gt;&amp;lt;&amp;lt;include&amp;gt;&amp;gt;&lt;/font&gt;" style="endArrow=open;endSize=12;dashed=1;html=1;rounded=0;exitX=0;exitY=0.5;exitDx=0;exitDy=0;entryX=0.963;entryY=0.283;entryDx=0;entryDy=0;entryPerimeter=0;" edge="1" parent="1" source="o7TXHGnSgMYz_lY65jY6-23" target="o7TXHGnSgMYz_lY65jY6-22">
          <mxGeometry x="0.0691" y="-3" width="160" relative="1" as="geometry">
            <mxPoint x="394.21000000000004" y="550" as="sourcePoint" />
            <mxPoint x="350.00172792337753" y="461.0042414261135" as="targetPoint" />
            <mxPoint as="offset" />
          </mxGeometry>
        </mxCell>
        <mxCell id="o7TXHGnSgMYz_lY65jY6-68" value="&lt;font style=&quot;font-size: 9px;&quot;&gt;&amp;lt;&amp;lt;include&amp;gt;&amp;gt;&lt;/font&gt;" style="endArrow=open;endSize=12;dashed=1;html=1;rounded=0;exitX=0.5;exitY=0;exitDx=0;exitDy=0;entryX=0;entryY=1;entryDx=0;entryDy=0;" edge="1" parent="1" source="o7TXHGnSgMYz_lY65jY6-22" target="o7TXHGnSgMYz_lY65jY6-20">
          <mxGeometry x="0.0691" y="-3" width="160" relative="1" as="geometry">
            <mxPoint x="250" y="549.96" as="sourcePoint" />
            <mxPoint x="436" y="474.96" as="targetPoint" />
            <mxPoint as="offset" />
          </mxGeometry>
        </mxCell>
        <mxCell id="o7TXHGnSgMYz_lY65jY6-69" value="&lt;font style=&quot;font-size: 9px;&quot;&gt;&amp;lt;&amp;lt;include&amp;gt;&amp;gt;&lt;/font&gt;" style="endArrow=open;endSize=12;dashed=1;html=1;rounded=0;exitX=0;exitY=0.5;exitDx=0;exitDy=0;entryX=0.5;entryY=1;entryDx=0;entryDy=0;" edge="1" parent="1" source="o7TXHGnSgMYz_lY65jY6-19" target="o7TXHGnSgMYz_lY65jY6-20">
          <mxGeometry x="0.0691" y="-3" width="160" relative="1" as="geometry">
            <mxPoint x="414.2" y="694.96" as="sourcePoint" />
            <mxPoint x="600.2" y="619.96" as="targetPoint" />
            <mxPoint as="offset" />
          </mxGeometry>
        </mxCell>
        <mxCell id="o7TXHGnSgMYz_lY65jY6-70" value="&lt;font style=&quot;font-size: 9px;&quot;&gt;&amp;lt;&amp;lt;include&amp;gt;&amp;gt;&lt;/font&gt;" style="endArrow=open;endSize=12;dashed=1;html=1;rounded=0;exitX=-0.017;exitY=0.369;exitDx=0;exitDy=0;entryX=0.343;entryY=1.003;entryDx=0;entryDy=0;entryPerimeter=0;exitPerimeter=0;" edge="1" parent="1" source="o7TXHGnSgMYz_lY65jY6-23" target="o7TXHGnSgMYz_lY65jY6-20">
          <mxGeometry x="0.0691" y="-3" width="160" relative="1" as="geometry">
            <mxPoint x="599.44" y="602.36" as="sourcePoint" />
            <mxPoint x="415.44" y="610.36" as="targetPoint" />
            <mxPoint as="offset" />
          </mxGeometry>
        </mxCell>
        <mxCell id="o7TXHGnSgMYz_lY65jY6-72" value="" style="endArrow=none;dashed=1;html=1;rounded=0;entryX=0;entryY=0.5;entryDx=0;entryDy=0;" edge="1" parent="1" target="o7TXHGnSgMYz_lY65jY6-18">
          <mxGeometry width="50" height="50" relative="1" as="geometry">
            <mxPoint x="520" y="520" as="sourcePoint" />
            <mxPoint x="530" y="590" as="targetPoint" />
          </mxGeometry>
        </mxCell>
      </root>
    </mxGraphModel>
  </diagram>
</mxfile>
